<svg width="272" height="106" viewBox="0 0 272 106" fill="none" xmlns="http://www.w3.org/2000/svg">
<g filter="url(#filter0_d)">
<path d="M192.94 80L246 14H10L64.6443 80H192.94Z" fill="#FEC901"/>
</g>
<path d="M160.375 44.7188C161.652 44.7188 162.688 43.6834 162.688 42.4062C162.688 41.1291 161.652 40.0938 160.375 40.0938C159.098 40.0938 158.062 41.1291 158.062 42.4062C158.062 43.6834 159.098 44.7188 160.375 44.7188Z" fill="white"/>
<path d="M160.375 56.2812C161.652 56.2812 162.688 55.2459 162.688 53.9688C162.688 52.6916 161.652 51.6562 160.375 51.6562C159.098 51.6562 158.062 52.6916 158.062 53.9688C158.062 55.2459 159.098 56.2812 160.375 56.2812Z" fill="white"/>
<path d="M160.375 67.8438C161.652 67.8438 162.688 66.8084 162.688 65.5312C162.688 64.2541 161.652 63.2188 160.375 63.2188C159.098 63.2188 158.062 64.2541 158.062 65.5312C158.062 66.8084 159.098 67.8438 160.375 67.8438Z" fill="white"/>
<path d="M160.375 79.4062C161.652 79.4062 162.688 78.3709 162.688 77.0938C162.688 75.8166 161.652 74.7812 160.375 74.7812C159.098 74.7812 158.062 75.8166 158.062 77.0938C158.062 78.3709 159.098 79.4062 160.375 79.4062Z" fill="white"/>
<path d="M160.375 90.9688C161.652 90.9688 162.688 89.9334 162.688 88.6562C162.688 87.3791 161.652 86.3438 160.375 86.3438C159.098 86.3438 158.062 87.3791 158.062 88.6562C158.062 89.9334 159.098 90.9688 160.375 90.9688Z" fill="white"/>
<path d="M160.375 102.531C161.652 102.531 162.688 101.496 162.688 100.219C162.688 98.9416 161.652 97.9062 160.375 97.9062C159.098 97.9062 158.062 98.9416 158.062 100.219C158.062 101.496 159.098 102.531 160.375 102.531Z" fill="white"/>
<path d="M131.609 49.6825C130.773 50.5185 130.312 51.6308 130.312 52.8125C130.312 53.9942 130.773 55.1065 131.609 55.9425L132.964 57.2976C134.237 58.5695 134.938 60.2622 134.938 62.0625C134.938 63.8628 134.237 65.5555 132.964 66.8274L131.609 68.1825C130.773 69.0185 130.312 70.1308 130.312 71.3125C130.312 72.4942 130.773 73.6065 131.609 74.4425L132.964 75.7976C134.237 77.0695 134.938 78.7622 134.938 80.5625C134.938 82.3628 134.237 84.0555 132.964 85.3274L131.609 86.6825C130.773 87.5185 130.312 88.6308 130.312 89.8125C130.312 90.9942 130.773 92.1065 131.609 92.9425L134.26 95.5938H139.084L138.067 94.5774C136.794 93.3055 136.094 91.6128 136.094 89.8125C136.094 88.0122 136.794 86.3195 138.067 85.0476L139.423 83.6925C140.259 82.8565 140.719 81.7442 140.719 80.5625C140.719 79.3808 140.259 78.2685 139.423 77.4325L138.067 76.0774C136.794 74.8055 136.094 73.1128 136.094 71.3125C136.094 69.5122 136.794 67.8195 138.067 66.5476L139.423 65.1925C140.259 64.3565 140.719 63.2442 140.719 62.0625C140.719 60.8808 140.259 59.7685 139.423 58.9325L138.067 57.5774C136.794 56.3055 136.094 54.6128 136.094 52.8125C136.094 51.0122 136.794 49.3195 138.067 48.0476L139.084 47.0312H134.26L131.609 49.6825Z" fill="white"/>
<path d="M139.702 86.6825C138.866 87.5185 138.406 88.6308 138.406 89.8125C138.406 90.9942 138.866 92.1065 139.702 92.9425L142.354 95.5938H145.344V47.0312H142.354L139.702 49.6825C138.866 50.5185 138.406 51.6308 138.406 52.8125C138.406 53.9942 138.866 55.1065 139.702 55.9425L141.058 57.2976C142.331 58.5695 143.031 60.2622 143.031 62.0625C143.031 63.8628 142.331 65.5555 141.058 66.8274L139.702 68.1825C138.866 69.0185 138.406 70.1308 138.406 71.3125C138.406 72.4942 138.866 73.6065 139.702 74.4425L141.058 75.7976C142.331 77.0695 143.031 78.7622 143.031 80.5625C143.031 82.3628 142.331 84.0555 141.058 85.3274L139.702 86.6825Z" fill="white"/>
<path d="M115.421 49.6825C114.585 50.5185 114.125 51.6308 114.125 52.8125C114.125 53.9942 114.585 55.1065 115.421 55.9425L116.776 57.2976C118.049 58.5695 118.75 60.2622 118.75 62.0625C118.75 63.8628 118.049 65.5555 116.776 66.8274L115.421 68.1825C114.585 69.0185 114.125 70.1308 114.125 71.3125C114.125 72.4942 114.585 73.6065 115.421 74.4425L116.776 75.7976C118.049 77.0695 118.75 78.7622 118.75 80.5625C118.75 82.3628 118.049 84.0555 116.776 85.3274L115.421 86.6825C114.585 87.5185 114.125 88.6308 114.125 89.8125C114.125 90.9942 114.585 92.1065 115.421 92.9425L118.072 95.5938H122.896L121.88 94.5774C120.607 93.3055 119.906 91.6128 119.906 89.8125C119.906 88.0122 120.607 86.3195 121.88 85.0476L123.235 83.6925C124.071 82.8565 124.531 81.7442 124.531 80.5625C124.531 79.3808 124.071 78.2685 123.235 77.4325L121.88 76.0774C120.607 74.8055 119.906 73.1128 119.906 71.3125C119.906 69.5122 120.607 67.8195 121.88 66.5476L123.235 65.1925C124.071 64.3565 124.531 63.2442 124.531 62.0625C124.531 60.8808 124.071 59.7685 123.235 58.9325L121.88 57.5774C120.607 56.3055 119.906 54.6128 119.906 52.8125C119.906 51.0122 120.607 49.3195 121.88 48.0476L122.896 47.0312H118.072L115.421 49.6825Z" fill="white"/>
<path d="M123.515 49.6825C122.679 50.5185 122.219 51.6308 122.219 52.8125C122.219 53.9942 122.679 55.1065 123.515 55.9425L124.87 57.2976C126.143 58.5695 126.844 60.2622 126.844 62.0625C126.844 63.8628 126.143 65.5555 124.87 66.8274L123.515 68.1825C122.679 69.0185 122.219 70.1308 122.219 71.3125C122.219 72.4942 122.679 73.6065 123.515 74.4425L124.87 75.7976C126.143 77.0695 126.844 78.7622 126.844 80.5625C126.844 82.3628 126.143 84.0555 124.87 85.3274L123.515 86.6825C122.679 87.5185 122.219 88.6308 122.219 89.8125C122.219 90.9942 122.679 92.1065 123.515 92.9425L126.166 95.5938H130.99L129.974 94.5774C128.701 93.3055 128 91.6128 128 89.8125C128 88.0122 128.701 86.3195 129.974 85.0476L131.329 83.6925C132.165 82.8565 132.625 81.7442 132.625 80.5625C132.625 79.3808 132.165 78.2685 131.329 77.4325L129.974 76.0774C128.701 74.8055 128 73.1128 128 71.3125C128 69.5122 128.701 67.8195 129.974 66.5476L131.329 65.1925C132.165 64.3565 132.625 63.2442 132.625 62.0625C132.625 60.8808 132.165 59.7685 131.329 58.9325L129.974 57.5774C128.701 56.3055 128 54.6128 128 52.8125C128 51.0122 128.701 49.3195 129.974 48.0476L130.99 47.0312H126.166L123.515 49.6825Z" fill="white"/>
<path d="M102.562 86.3438C98.0994 86.3438 94.4688 89.9744 94.4688 94.4375C94.4688 98.9006 98.0994 102.531 102.562 102.531C107.026 102.531 110.656 98.9006 110.656 94.4375C110.656 89.9744 107.026 86.3438 102.562 86.3438ZM102.562 100.219C99.3747 100.219 96.7812 97.6253 96.7812 94.4375C96.7812 91.2497 99.3747 88.6562 102.562 88.6562C105.75 88.6562 108.344 91.2497 108.344 94.4375C108.344 97.6253 105.75 100.219 102.562 100.219Z" fill="white"/>
<path d="M112.969 43.5625V44.7188H146.5C147.138 44.7188 147.656 45.2368 147.656 45.875V96.75C147.656 97.3882 147.138 97.9062 146.5 97.9062H112.362C111.712 99.7366 110.572 101.333 109.088 102.531H152.281V40.0938H112.362C112.748 41.1806 112.969 42.345 112.969 43.5625Z" fill="white"/>
<path d="M102.562 84.0312C105.83 84.0312 108.747 85.5482 110.656 87.9116V43.5625C110.656 39.0994 107.026 35.4688 102.562 35.4688C98.0994 35.4688 94.4688 39.0994 94.4688 43.5625V87.9116C96.3777 85.5482 99.2949 84.0312 102.562 84.0312Z" fill="white"/>
<path d="M102.562 97.9062C104.478 97.9062 106.031 96.3532 106.031 94.4375C106.031 92.5218 104.478 90.9688 102.562 90.9688C100.647 90.9688 99.0938 92.5218 99.0938 94.4375C99.0938 96.3532 100.647 97.9062 102.562 97.9062Z" fill="white"/>
<path d="M112.969 49.0385C113.207 48.687 113.48 48.354 113.786 48.0476L114.803 47.0312H112.969V49.0385Z" fill="white"/>
<path d="M112.969 67.5384C113.207 67.1869 113.48 66.8539 113.786 66.5475L115.141 65.1924C115.977 64.3564 116.438 63.2441 116.438 62.0624C116.438 60.8807 115.977 59.7684 115.141 58.9325L113.786 57.5773C113.479 57.2698 113.207 56.9379 112.969 56.5864V67.5384Z" fill="white"/>
<path d="M112.969 94.4374C112.969 94.8282 112.943 95.2133 112.9 95.5937H114.802L113.786 94.5773C113.479 94.2698 113.207 93.9379 112.969 93.5864V94.4374Z" fill="white"/>
<path d="M112.969 86.0384C113.207 85.6869 113.48 85.3539 113.786 85.0475L115.141 83.6924C115.977 82.8564 116.438 81.7441 116.438 80.5624C116.438 79.3807 115.977 78.2684 115.141 77.4325L113.786 76.0773C113.479 75.7698 113.207 75.4379 112.969 75.0864V86.0384Z" fill="white"/>
<path d="M157.119 41.25H153.438V43.5625H157.119C156.989 43.1994 156.906 42.8132 156.906 42.4062C156.906 41.9992 156.989 41.6131 157.119 41.25Z" fill="white"/>
<path d="M157.119 52.8125H153.438V55.125H157.119C156.989 54.7619 156.906 54.3757 156.906 53.9688C156.906 53.5617 156.989 53.1756 157.119 52.8125Z" fill="white"/>
<path d="M157.119 64.375H153.438V66.6875H157.119C156.989 66.3244 156.906 65.9382 156.906 65.5312C156.906 65.1242 156.989 64.7381 157.119 64.375Z" fill="white"/>
<path d="M157.119 75.9375H153.438V78.25H157.119C156.989 77.8869 156.906 77.5007 156.906 77.0938C156.906 76.6867 156.989 76.3006 157.119 75.9375Z" fill="white"/>
<path d="M157.119 87.5H153.438V89.8125H157.119C156.989 89.4494 156.906 89.0632 156.906 88.6562C156.906 88.2492 156.989 87.8631 157.119 87.5Z" fill="white"/>
<path d="M157.119 99.0625H153.438V101.375H157.119C156.989 101.012 156.906 100.626 156.906 100.219C156.906 99.8117 156.989 99.4256 157.119 99.0625Z" fill="white"/>
<defs>
<filter id="filter0_d" x="0" y="0" width="272" height="102" filterUnits="userSpaceOnUse" color-interpolation-filters="sRGB">
<feFlood flood-opacity="0" result="BackgroundImageFix"/>
<feColorMatrix in="SourceAlpha" type="matrix" values="0 0 0 0 0 0 0 0 0 0 0 0 0 0 0 0 0 0 127 0"/>
<feOffset dx="8" dy="4"/>
<feGaussianBlur stdDeviation="9"/>
<feColorMatrix type="matrix" values="0 0 0 0 0.171129 0 0 0 0 0.171129 0 0 0 0 0.171129 0 0 0 0.15 0"/>
<feBlend mode="normal" in2="BackgroundImageFix" result="effect1_dropShadow"/>
<feBlend mode="normal" in="SourceGraphic" in2="effect1_dropShadow" result="shape"/>
</filter>
</defs>
</svg>
